<mxfile host="grossard.fr" modified="2023-09-25T11:43:24.991Z" agent="Mozilla/5.0 (X11; Ubuntu; Linux x86_64; rv:109.0) Gecko/20100101 Firefox/117.0" etag="UIDXgYkRKJ9pzp6K8GXf" version="21.8.0" type="device">
  <diagram name="Page-1" id="sB_6ltyYg7sQdk6UdiCA">
    <mxGraphModel dx="1434" dy="730" grid="1" gridSize="10" guides="1" tooltips="1" connect="1" arrows="1" fold="1" page="1" pageScale="1" pageWidth="827" pageHeight="1169" math="0" shadow="0">
      <root>
        <mxCell id="0" />
        <mxCell id="1" parent="0" />
        <mxCell id="AtBKD9JgR3F2M5N_TU4G-1" value="main" style="strokeWidth=2;html=1;shape=mxgraph.flowchart.start_1;whiteSpace=wrap;strokeColor=#82b366;fillColor=#d5e8d4;" parent="1" vertex="1">
          <mxGeometry x="70" y="50" width="100" height="60" as="geometry" />
        </mxCell>
        <mxCell id="ndN86tK0NlOdKYI0bEmx-1" value="end" style="strokeWidth=2;html=1;shape=mxgraph.flowchart.terminator;whiteSpace=wrap;fillColor=#f8cecc;strokeColor=#b85450;" parent="1" vertex="1">
          <mxGeometry x="70" y="560" width="100" height="60" as="geometry" />
        </mxCell>
        <mxCell id="ndN86tK0NlOdKYI0bEmx-2" value="sous-programme" style="verticalLabelPosition=middle;verticalAlign=middle;html=1;shape=process;whiteSpace=wrap;rounded=1;size=0.1;arcSize=0;fillColor=#dae8fc;strokeColor=#6c8ebf;labelPosition=center;align=center;" parent="1" vertex="1">
          <mxGeometry x="70" y="270" width="100" height="60" as="geometry" />
        </mxCell>
        <mxCell id="ndN86tK0NlOdKYI0bEmx-13" value="I/O" style="shape=parallelogram;html=1;strokeWidth=2;perimeter=parallelogramPerimeter;whiteSpace=wrap;rounded=1;arcSize=12;size=0.23;fillColor=#ffe6cc;strokeColor=#d79b00;" parent="1" vertex="1">
          <mxGeometry x="70" y="160" width="100" height="60" as="geometry" />
        </mxCell>
        <mxCell id="ndN86tK0NlOdKYI0bEmx-14" value="Entrée &lt;br&gt;manuelle" style="html=1;strokeWidth=2;shape=manualInput;whiteSpace=wrap;rounded=1;size=26;arcSize=11;fillColor=#f5f5f5;fontColor=#333333;strokeColor=#666666;labelPosition=center;verticalLabelPosition=middle;align=center;verticalAlign=middle;spacingBottom=-19;" parent="1" vertex="1">
          <mxGeometry x="230" y="470" width="100" height="60" as="geometry" />
        </mxCell>
        <mxCell id="ndN86tK0NlOdKYI0bEmx-15" value="stockage dans une variable" style="strokeWidth=2;html=1;shape=mxgraph.flowchart.stored_data;whiteSpace=wrap;fillColor=#fff2cc;strokeColor=#d6b656;" parent="1" vertex="1">
          <mxGeometry x="70" y="470" width="100" height="60" as="geometry" />
        </mxCell>
        <mxCell id="ndN86tK0NlOdKYI0bEmx-16" value="test" style="strokeWidth=2;html=1;shape=mxgraph.flowchart.decision;whiteSpace=wrap;fillColor=#e1d5e7;strokeColor=#9673a6;" parent="1" vertex="1">
          <mxGeometry x="230" y="140" width="100" height="100" as="geometry" />
        </mxCell>
        <mxCell id="ndN86tK0NlOdKYI0bEmx-17" value="Écriture fichier" style="strokeWidth=2;html=1;shape=mxgraph.flowchart.document2;whiteSpace=wrap;size=0.25;fillColor=#f5f5f5;fontColor=#333333;strokeColor=#666666;" parent="1" vertex="1">
          <mxGeometry x="230" y="280" width="100" height="60" as="geometry" />
        </mxCell>
        <mxCell id="ndN86tK0NlOdKYI0bEmx-18" value="Affichage" style="strokeWidth=2;html=1;shape=mxgraph.flowchart.display;whiteSpace=wrap;fillColor=#f5f5f5;fontColor=#333333;strokeColor=#666666;" parent="1" vertex="1">
          <mxGeometry x="230" y="380" width="100" height="60" as="geometry" />
        </mxCell>
        <mxCell id="ndN86tK0NlOdKYI0bEmx-19" value="Processus" style="rounded=1;whiteSpace=wrap;html=1;absoluteArcSize=1;arcSize=14;strokeWidth=2;fillColor=#dae8fc;strokeColor=#6c8ebf;" parent="1" vertex="1">
          <mxGeometry x="70" y="380" width="100" height="50" as="geometry" />
        </mxCell>
      </root>
    </mxGraphModel>
  </diagram>
</mxfile>
